<svg width="20" height="20" viewBox="0 0 20 20" fill="none" xmlns="http://www.w3.org/2000/svg">
<g clip-path="url(#clip0_34_300)">
<path d="M7.39197 19.6C7.06397 19.592 6.75197 19.516 6.44397 19.372C6.14397 19.232 5.89597 19.044 5.67597 18.8C5.51197 18.616 5.37597 18.404 5.26397 18.156C5.14397 17.884 5.07997 17.568 5.05997 17.152L5.02397 16.26C5.01197 15.996 4.99997 15.736 4.98797 15.472C4.97597 15.256 4.96797 15.04 4.96397 14.824C4.95997 14.684 4.95597 14.548 4.94797 14.408C4.94397 14.28 4.93597 14.152 4.92797 14.024L4.91197 13.764C4.90797 13.672 4.87197 13.5 4.67997 13.38L2.78797 12.204L2.47997 12.008C2.29197 11.888 2.10797 11.768 1.91597 11.656C1.43197 11.368 1.10397 11.06 0.891972 10.684C0.707972 10.356 0.599972 9.99999 0.571972 9.58799C0.559972 9.43199 0.575972 9.25599 0.619972 9.02399C0.707972 8.54799 0.915972 8.14799 1.24797 7.80399C1.31597 7.73199 1.38797 7.66799 1.46397 7.59999L1.51997 7.54799C1.54797 7.53199 1.57197 7.51599 1.59597 7.49599C1.91197 7.29199 2.27197 7.16399 2.65197 7.02799C2.79597 6.97599 2.94397 6.92399 3.08797 6.86799C3.53197 6.69199 3.97997 6.52799 4.42797 6.35999L5.10797 6.10399C5.19597 6.07199 5.28797 6.03999 5.37597 6.00799C5.47997 5.97199 5.66397 5.87199 5.72797 5.60799C5.79997 5.29999 5.87597 4.99599 5.95197 4.69199L6.13997 3.93599L6.32797 3.15999L6.39197 2.89999C6.43997 2.73599 6.47997 2.56799 6.51997 2.39999C6.61597 1.97599 6.75997 1.63199 6.97197 1.35199C7.17997 1.07199 7.44797 0.847994 7.78797 0.667994C7.88797 0.615994 7.99997 0.571994 8.11997 0.531994C8.17597 0.511994 8.22797 0.491994 8.28397 0.471994C8.46797 0.423994 8.65997 0.399994 8.85197 0.399994H8.90797C9.67197 0.419994 10.276 0.719994 10.752 1.31599L12.432 3.42399C12.584 3.61599 12.74 3.80799 12.888 4.00399C13.044 4.20399 13.232 4.24799 13.364 4.24799H13.416C13.988 4.20399 14.556 4.15999 15.128 4.11999C15.128 4.11999 15.912 4.06799 16.076 4.05599C16.192 4.04799 16.312 4.03599 16.428 4.02799C16.58 4.01599 16.732 3.99999 16.884 3.99199C16.94 3.98799 16.992 3.98799 17.048 3.98799C17.388 3.98799 17.704 4.05599 17.996 4.18799C18.296 4.32799 18.548 4.50399 18.76 4.71999L19.396 5.99999C19.4 6.00799 19.4 6.01599 19.404 6.02399L19.408 6.07199C19.416 6.15999 19.424 6.24399 19.428 6.33199C19.436 6.45199 19.416 6.58399 19.4 6.71999C19.36 7.01599 19.276 7.27199 19.148 7.50799C19.024 7.72799 18.884 7.93599 18.736 8.15999C18.672 8.25199 18.612 8.34799 18.552 8.43999L17.96 9.34799L17.108 10.64C16.972 10.844 17.004 11.02 17.056 11.128C17.064 11.148 17.072 11.168 17.08 11.184C17.1 11.236 17.124 11.304 17.164 11.376L17.504 12.236L17.82 13.016C18.02 13.508 18.216 14 18.412 14.492C18.504 14.72 18.548 14.972 18.556 15.256C18.556 15.308 18.56 15.356 18.564 15.408C18.548 15.456 18.544 15.5 18.54 15.524L18.536 15.568C18.528 15.648 18.516 15.728 18.5 15.804C18.42 16.148 18.28 16.452 18.076 16.724C17.896 16.964 17.708 17.148 17.496 17.284C17.136 17.52 16.772 17.648 16.376 17.68C16.312 17.684 16.248 17.688 16.184 17.688C15.956 17.688 15.728 17.656 15.484 17.592C15.308 17.544 15.132 17.496 14.952 17.444L14.612 17.348L12.896 16.876C12.652 16.808 12.404 16.74 12.16 16.672C12.108 16.656 12.056 16.648 12.008 16.648C11.88 16.648 11.76 16.696 11.656 16.788C11.564 16.868 11.472 16.948 11.38 17.024L10.612 17.668L10.32 17.92C10.16 18.06 9.99997 18.196 9.83597 18.328C9.61997 18.504 9.40797 18.684 9.19597 18.868L9.06397 18.98C8.84797 19.164 8.64397 19.296 8.43997 19.392C8.13197 19.532 7.81197 19.6 7.45997 19.6H7.39197Z" fill="#F5DF5B"/>
<path d="M8.85196 0.8H8.89997C9.54797 0.816 10.04 1.06 10.444 1.568L11.196 2.512L12.12 3.672L12.148 3.704C12.292 3.884 12.436 4.064 12.576 4.244C12.844 4.592 13.188 4.644 13.368 4.644C13.396 4.644 13.424 4.644 13.452 4.64C14.02 4.596 14.592 4.552 15.16 4.512C15.312 4.5 15.464 4.492 15.616 4.48C15.78 4.468 15.944 4.46 16.104 4.448C16.224 4.44 16.344 4.428 16.46 4.42C16.608 4.408 16.76 4.396 16.908 4.384C16.956 4.38 17 4.38 17.048 4.38C17.332 4.38 17.588 4.432 17.828 4.544C18.348 4.784 18.688 5.144 18.888 5.668L18.78 5.776L19.012 6.156C19.02 6.22 19.024 6.284 19.028 6.348C19.032 6.428 19.02 6.54 19.004 6.66L19 6.692C18.972 6.908 18.904 7.116 18.8 7.304C18.684 7.512 18.548 7.712 18.404 7.928C18.34 8.02 18.28 8.116 18.216 8.212L18.024 8.504C17.892 8.708 17.756 8.916 17.624 9.12C17.452 9.38 17.28 9.64 17.108 9.9L16.772 10.412C16.512 10.808 16.632 11.16 16.688 11.28L16.7 11.308C16.72 11.364 16.748 11.448 16.8 11.54L16.884 11.756C16.964 11.96 17.048 12.168 17.128 12.372L17.436 13.14C17.636 13.636 17.836 14.132 18.032 14.628C18.104 14.812 18.144 15.016 18.148 15.252C18.148 15.288 18.152 15.324 18.152 15.36C18.144 15.404 18.14 15.44 18.136 15.464L18.132 15.508C18.124 15.584 18.116 15.652 18.104 15.704C18.036 15.996 17.92 16.248 17.748 16.476C17.596 16.676 17.44 16.828 17.268 16.944C16.968 17.14 16.664 17.248 16.336 17.276C16.28 17.28 16.228 17.284 16.172 17.284C15.98 17.284 15.784 17.256 15.576 17.204C15.4 17.156 15.224 17.108 15.048 17.056C14.936 17.024 14.824 16.992 14.712 16.96L13.716 16.688L13.2 16.548L12.98 16.488C12.744 16.424 12.508 16.36 12.272 16.292C12.184 16.268 12.096 16.256 12.008 16.256C11.852 16.256 11.616 16.296 11.392 16.492C11.304 16.572 11.212 16.648 11.12 16.724L10.812 16.984C10.656 17.112 10.504 17.24 10.352 17.372C10.256 17.456 10.16 17.536 10.064 17.62C9.90797 17.756 9.75197 17.892 9.58797 18.024C9.37197 18.2 9.15997 18.38 8.95197 18.56L8.80797 18.684C8.62397 18.844 8.44797 18.956 8.27597 19.036C8.01997 19.152 7.75597 19.208 7.45997 19.208H7.39997C7.12797 19.2 6.87197 19.14 6.61197 19.016C6.36397 18.9 6.15197 18.744 5.96797 18.54C5.83197 18.388 5.71997 18.212 5.62397 18.004C5.52397 17.776 5.47197 17.512 5.45597 17.144C5.44797 16.924 5.43597 16.7 5.42797 16.48L5.41997 16.256C5.40797 15.992 5.39597 15.728 5.37997 15.464C5.36797 15.252 5.35997 15.04 5.35597 14.828C5.35197 14.688 5.34797 14.544 5.33997 14.404C5.33597 14.276 5.32797 14.144 5.31997 14.016C5.31597 13.928 5.30797 13.844 5.30397 13.756C5.28797 13.464 5.13597 13.208 4.87997 13.052C4.69997 12.94 4.51997 12.832 4.34397 12.72L4.25197 12.664L3.91597 12.44C3.60797 12.248 3.30396 12.06 2.99596 11.868C2.89596 11.804 2.79596 11.74 2.69196 11.676C2.49996 11.552 2.30796 11.432 2.11596 11.316C1.68796 11.06 1.41596 10.804 1.23596 10.492C1.07996 10.22 0.991965 9.916 0.967965 9.568C0.959965 9.448 0.971965 9.304 1.00796 9.104C1.08396 8.708 1.25196 8.376 1.53196 8.088C1.59596 8.024 1.65996 7.964 1.72796 7.904C1.73596 7.9 1.73996 7.892 1.74796 7.888C1.77596 7.868 1.80796 7.848 1.83196 7.828C2.10396 7.656 2.43596 7.54 2.78396 7.416C2.93196 7.364 3.08396 7.308 3.23197 7.252C3.67197 7.08 4.11597 6.912 4.55997 6.744L5.13197 6.528L5.24397 6.488C5.32797 6.456 5.41597 6.424 5.49997 6.396C5.81197 6.292 6.03197 6.04 6.11197 5.712C6.18397 5.408 6.25997 5.104 6.33597 4.8L6.42397 4.444C6.45597 4.312 6.49197 4.176 6.52397 4.044C6.55997 3.896 6.59597 3.748 6.63197 3.596L6.71197 3.264C6.73197 3.18 6.75197 3.096 6.77597 3.012C6.81997 2.84 6.86397 2.668 6.89997 2.492C6.97997 2.124 7.10796 1.832 7.28397 1.596C7.45597 1.364 7.67997 1.18 7.96797 1.028C8.04397 0.988 8.13997 0.956 8.24797 0.912C8.29597 0.896 8.34397 0.876 8.39197 0.86C8.54797 0.816 8.69997 0.8 8.85196 0.8ZM8.85196 0C8.61997 0 8.38797 0.028 8.15997 0.088C7.97197 0.16 7.77997 0.22 7.59997 0.312C7.22397 0.508 6.89997 0.768 6.64797 1.112C6.37997 1.472 6.22397 1.88 6.12797 2.312C6.07197 2.564 6.00397 2.816 5.94397 3.068C5.87997 3.328 5.81997 3.584 5.75597 3.844C5.69197 4.096 5.62797 4.348 5.56797 4.6C5.49197 4.908 5.41597 5.212 5.34397 5.52C5.33197 5.576 5.30797 5.616 5.25197 5.636C5.12397 5.68 4.99597 5.728 4.86797 5.776C4.22797 6.02 3.58397 6.256 2.94796 6.504C2.40796 6.716 1.83996 6.868 1.34796 7.196C1.33996 7.212 1.32796 7.216 1.31196 7.216H1.30796C1.19196 7.324 1.07196 7.424 0.963965 7.536C0.575965 7.936 0.331965 8.412 0.227965 8.96C0.187965 9.18 0.159965 9.404 0.175965 9.624C0.207965 10.072 0.323965 10.496 0.547965 10.888C0.827965 11.38 1.23996 11.724 1.71596 12.004C2.00796 12.176 2.29196 12.368 2.57996 12.548C2.99996 12.812 3.41997 13.072 3.83997 13.332C4.05197 13.464 4.25997 13.592 4.47197 13.724C4.49597 13.74 4.51197 13.756 4.51597 13.788C4.52797 14 4.54397 14.216 4.55197 14.428C4.56797 14.784 4.57197 15.14 4.59197 15.5C4.60796 15.76 4.61997 16.02 4.62796 16.28C4.63997 16.576 4.65197 16.876 4.66397 17.172C4.67997 17.568 4.73997 17.956 4.89997 18.32C5.01997 18.596 5.17597 18.844 5.37997 19.068C5.63597 19.352 5.93197 19.572 6.27597 19.732C6.62797 19.896 6.99597 19.988 7.38397 20C7.41197 20 7.43597 20 7.46397 20C7.86397 20 8.24397 19.92 8.61197 19.756C8.87597 19.636 9.11197 19.472 9.33197 19.284C9.58797 19.068 9.83997 18.848 10.1 18.64C10.364 18.424 10.616 18.2 10.876 17.98C11.132 17.764 11.388 17.552 11.644 17.336C11.74 17.256 11.832 17.176 11.924 17.096C11.952 17.072 11.98 17.056 12.016 17.056C12.028 17.056 12.044 17.06 12.06 17.064C12.372 17.152 12.684 17.24 12.996 17.324C13.5 17.464 14.008 17.6 14.512 17.74C14.804 17.82 15.092 17.908 15.388 17.984C15.652 18.052 15.916 18.092 16.188 18.092C16.264 18.092 16.34 18.088 16.412 18.084C16.892 18.044 17.324 17.884 17.716 17.624C17.98 17.452 18.204 17.224 18.396 16.968C18.64 16.644 18.8 16.288 18.892 15.896C18.916 15.792 18.928 15.684 18.94 15.576C18.944 15.54 18.948 15.508 18.972 15.48C18.968 15.404 18.96 15.324 18.96 15.248C18.952 14.936 18.904 14.632 18.788 14.344C18.488 13.588 18.184 12.84 17.88 12.088C17.76 11.792 17.644 11.492 17.524 11.196C17.472 11.124 17.456 11.036 17.42 10.96C17.404 10.924 17.424 10.892 17.444 10.864C17.728 10.432 18.016 10.004 18.3 9.572C18.5 9.268 18.696 8.964 18.892 8.66C19.096 8.344 19.32 8.036 19.504 7.708C19.66 7.428 19.76 7.124 19.8 6.804C19.82 6.64 19.844 6.48 19.836 6.312C19.828 6.176 19.812 6.04 19.8 5.908C19.772 5.888 19.784 5.856 19.78 5.828C19.764 5.772 19.748 5.716 19.732 5.66C19.484 4.816 18.968 4.196 18.168 3.828C17.812 3.664 17.44 3.588 17.052 3.588C16.988 3.588 16.928 3.588 16.864 3.592C16.592 3.608 16.32 3.636 16.048 3.656C15.732 3.68 15.416 3.696 15.104 3.72C14.532 3.76 13.96 3.804 13.392 3.848C13.384 3.848 13.376 3.848 13.372 3.848C13.3 3.848 13.256 3.816 13.212 3.76C13.06 3.564 12.904 3.368 12.752 3.176C12.192 2.472 11.632 1.772 11.072 1.068C10.516 0.376 9.79597 0.024 8.91997 0C8.89597 0 8.87197 0 8.85196 0ZM19.796 5.9C19.796 5.904 19.796 5.904 19.796 5.9C19.796 5.904 19.796 5.9 19.796 5.9ZM1.30796 7.208C1.30796 7.208 1.30396 7.212 1.30796 7.208C1.30396 7.212 1.30396 7.212 1.30796 7.208Z" fill="black"/>
<path d="M19.692 5.67199C19.664 5.65199 19.676 5.62399 19.672 5.59599C19.692 5.61599 19.696 5.64399 19.692 5.67199Z" fill="#EFAE4B"/>
<path d="M1.77196 6.908C1.76396 6.92401 1.75196 6.928 1.73596 6.924C1.73996 6.912 1.75596 6.912 1.77196 6.908Z" fill="#EFAE4B"/>
</g>
<defs>
<clipPath id="clip0_34_300">
<rect width="20" height="20" fill="white"/>
</clipPath>
</defs>
</svg>
