<svg width="20" height="20" fill="none" xmlns="http://www.w3.org/2000/svg"><path d="M8.852.8H8.9c.648.016 1.14.26 1.544.768l.752.944.924 1.16.028.032c.144.18.288.36.428.54.268.348.612.4.792.4.028 0 .056 0 .084-.004.568-.044 1.14-.088 1.708-.128.152-.012.304-.02.456-.032.164-.012.328-.02.488-.032.12-.008.24-.02.356-.028l.448-.036c.048-.004.092-.004.14-.004.284 0 .54.052.78.164.52.24.86.6 1.06 1.124l-.108.108.232.38c.008.064.012.128.016.192.004.08-.008.192-.024.312L19 6.692a1.722 1.722 0 0 1-.2.612c-.116.208-.252.408-.396.624-.064.092-.124.188-.188.284l-.192.292-.4.616-.516.78-.336.512a.881.881 0 0 0-.084.868l.012.028c.02.056.048.14.1.232l.084.216.244.616.308.768c.2.496.4.992.596 1.488.072.184.112.388.116.624 0 .036.004.072.004.108-.008.044-.012.08-.016.104l-.004.044a1.765 1.765 0 0 1-.028.196 2.01 2.01 0 0 1-.356.772 2.03 2.03 0 0 1-.48.468c-.3.196-.604.304-.932.332-.056.004-.108.008-.164.008-.192 0-.388-.028-.596-.08-.176-.048-.352-.096-.528-.148l-.336-.096-.996-.272-.516-.14-.22-.06c-.236-.064-.472-.128-.708-.196a.924.924 0 0 0-.88.2c-.088.08-.18.156-.272.232l-.308.26c-.156.128-.308.256-.46.388-.096.084-.192.164-.288.248-.156.136-.312.272-.476.404-.216.176-.428.356-.636.536l-.144.124a2.26 2.26 0 0 1-.532.352c-.256.116-.52.172-.816.172H7.4a1.919 1.919 0 0 1-.788-.192 1.985 1.985 0 0 1-.988-1.012c-.1-.228-.152-.492-.168-.86-.008-.22-.02-.444-.028-.664l-.008-.224c-.012-.264-.024-.528-.04-.792-.012-.212-.02-.424-.024-.636-.004-.14-.008-.284-.016-.424-.004-.128-.012-.26-.02-.388-.004-.088-.012-.172-.016-.26a.868.868 0 0 0-.424-.704c-.18-.112-.36-.22-.536-.332l-.092-.056-.336-.224-.92-.572c-.1-.064-.2-.128-.304-.192a22.67 22.67 0 0 0-.576-.36c-.428-.256-.7-.512-.88-.824a2.112 2.112 0 0 1-.268-.924c-.008-.12.004-.264.04-.464a1.93 1.93 0 0 1 .524-1.016c.064-.064.128-.124.196-.184.008-.004.012-.012.02-.016.028-.02.06-.04.084-.06.272-.172.604-.288.952-.412.148-.052.3-.108.448-.164.44-.172.884-.34 1.328-.508l.572-.216.112-.04c.084-.032.172-.064.256-.092a.932.932 0 0 0 .612-.684c.072-.304.148-.608.224-.912l.088-.356.1-.4.108-.448.08-.332c.02-.084.04-.168.064-.252.044-.172.088-.344.124-.52.08-.368.208-.66.384-.896.172-.232.396-.416.684-.568.076-.04.172-.072.28-.116.048-.016.096-.036.144-.052.156-.044.308-.06.46-.06Zm0-.8c-.232 0-.464.028-.692.088-.188.072-.38.132-.56.224-.376.196-.7.456-.952.8-.268.36-.424.768-.52 1.2-.056.252-.124.504-.184.756l-.188.776c-.064.252-.128.504-.188.756-.076.308-.152.612-.224.92-.012.056-.036.096-.092.116-.128.044-.256.092-.384.14-.64.244-1.284.48-1.92.728-.54.212-1.108.364-1.6.692-.008.016-.02.02-.036.02h-.004c-.116.108-.236.208-.344.32-.388.4-.632.876-.736 1.424-.04.22-.068.444-.052.664.032.448.148.872.372 1.264.28.492.692.836 1.168 1.116.292.172.576.364.864.544.42.264.84.524 1.26.784l.632.392c.024.016.04.032.044.064.012.212.028.428.036.64.016.356.02.712.04 1.072.016.26.028.52.036.78l.036.892c.016.396.076.784.236 1.148.12.276.276.524.48.748.256.284.552.504.896.664.352.164.72.256 1.108.268h.08c.4 0 .78-.08 1.148-.244.264-.12.5-.284.72-.472.256-.216.508-.436.768-.644.264-.216.516-.44.776-.66.256-.216.512-.428.768-.644.096-.08.188-.16.28-.24.028-.024.056-.04.092-.04.012 0 .028.004.044.008.312.088.624.176.936.26.504.14 1.012.276 1.516.416.292.08.58.168.876.244a3.186 3.186 0 0 0 1.024.1 2.736 2.736 0 0 0 1.984-1.116c.244-.324.404-.68.496-1.072.024-.104.036-.212.048-.32.004-.036.008-.068.032-.096-.004-.076-.012-.156-.012-.232a2.573 2.573 0 0 0-.172-.904c-.3-.756-.604-1.504-.908-2.256-.12-.296-.236-.596-.356-.892-.052-.072-.068-.16-.104-.236-.016-.036.004-.068.024-.096.284-.432.572-.86.856-1.292.2-.304.396-.608.592-.912.204-.316.428-.624.612-.952.156-.28.256-.584.296-.904.02-.164.044-.324.036-.492-.008-.136-.024-.272-.036-.404-.028-.02-.016-.052-.02-.08l-.048-.168c-.248-.844-.764-1.464-1.564-1.832a2.631 2.631 0 0 0-1.116-.24c-.064 0-.124 0-.188.004-.272.016-.544.044-.816.064-.316.024-.632.04-.944.064-.572.04-1.144.084-1.712.128h-.02c-.072 0-.116-.032-.16-.088-.152-.196-.308-.392-.46-.584l-1.68-2.108C10.516.376 9.796.024 8.92 0h-.068Zm10.944 5.9c0 .004 0 .004 0 0 0 .004 0 0 0 0ZM1.308 7.208s-.004.004 0 0c-.004.004-.004.004 0 0Z" fill="#000"/></svg>